<?xml version="1.0" encoding="UTF-8" standalone="no"?>
<!-- Generated by Microsoft Visio, SVG Export bundle_diagram2.svg Page-1 -->
<svg xmlns="http://www.w3.org/2000/svg" xmlns:xlink="http://www.w3.org/1999/xlink" xmlns:ev="http://www.w3.org/2001/xml-events"
		xmlns:v="http://schemas.microsoft.com/visio/2003/SVGExtensions/" width="11.6929in" height="8.26772in"
		viewBox="0 0 841.889 595.276" xml:space="preserve" color-interpolation-filters="sRGB" class="st8">
	<v:documentProperties v:langID="2057">
		<v:userDefs>
			<v:ud v:nameU="msvSubprocessMaster" v:prompt="" v:val="VT4(Rectangle)"/>
			<v:ud v:nameU="msvNoAutoConnect" v:val="VT0(1):26"/>
		</v:userDefs>
	</v:documentProperties>

	<style type="text/css">
	<![CDATA[
		.st1 {fill:#4672c4;stroke:#c7c8c8;stroke-width:0.25}
		.st2 {fill:#feffff;font-family:Calibri;font-size:0.833336em}
		.st3 {marker-end:url(#mrkr4-12);stroke:#4672c4;stroke-linecap:round;stroke-linejoin:round;stroke-width:0.999999}
		.st4 {fill:#4672c4;fill-opacity:1;stroke:#4672c4;stroke-opacity:1;stroke-width:0.28409061919554}
		.st5 {fill:#ffffff;stroke:none;stroke-linecap:butt;stroke-width:7.2}
		.st6 {fill:#ff0000;font-family:Calibri;font-size:0.666664em}
		.st7 {font-size:1em}
		.st8 {fill:none;fill-rule:evenodd;font-size:12px;overflow:visible;stroke-linecap:square;stroke-miterlimit:3}
	]]>
	</style>

	<defs id="Markers">
		<g id="lend4">
			<path d="M 2 1 L 0 0 L 2 -1 L 2 1 " style="stroke:none"/>
		</g>
		<marker id="mrkr4-12" class="st4" v:arrowType="4" v:arrowSize="2" v:setback="0" refX="-0" orient="auto"
				markerUnits="strokeWidth" overflow="visible">
			<use xlink:href="#lend4" transform="scale(-3.5200035919233,-3.5200035919233) "/>
		</marker>
	</defs>
	<g v:mID="0" v:index="1" v:groupContext="foregroundPage">
		<v:userDefs>
			<v:ud v:nameU="msvThemeOrder" v:val="VT0(0):26"/>
		</v:userDefs>
		<title>Page-1</title>
		<v:pageProperties v:drawingScale="0.0393701" v:pageScale="0.0393701" v:drawingUnits="24" v:shadowOffsetX="8.50393"
				v:shadowOffsetY="-8.50393"/>
		<v:layer v:name="Connector" v:index="0"/>
		<g id="shape1-1" v:mID="1" v:groupContext="shape" transform="translate(32.5686,-481.89)">
			<title>Click for how to map to Bundle</title>
			<desc>Bundle</desc>
			<v:userDefs>
				<v:ud v:nameU="visVersion" v:val="VT0(15):26"/>
			</v:userDefs>
			<v:textBlock v:margins="rect(3.99999,3.99999,3.99999,3.99999)" v:tabSpace="42.5196"/>
			<v:textRect cx="45.3542" cy="561.26" width="90.71" height="68.0314"/>
			<rect x="0" y="527.244" width="90.7086" height="68.0314" class="st1"/>
			<text x="31.12" y="564.26" class="st2" v:langID="1033"><v:paragraph v:horizAlign="1"/><v:tabList/>Bundle</text>		</g>
		<g id="shape2-4" v:mID="2" v:groupContext="shape" transform="translate(32.5686,-357.165)">
			<title>Sheet.2</title>
			<desc>MessageHeader</desc>
			<v:userDefs>
				<v:ud v:nameU="visVersion" v:val="VT0(15):26"/>
			</v:userDefs>
			<v:textBlock v:margins="rect(3.99999,3.99999,3.99999,3.99999)" v:tabSpace="42.5196"/>
			<v:textRect cx="45.3542" cy="561.26" width="90.71" height="68.0314"/>
			<rect x="0" y="527.244" width="90.7086" height="68.0314" class="st1"/>
			<text x="12.59" y="564.26" class="st2" v:langID="1033"><v:paragraph v:horizAlign="1"/><v:tabList/>MessageHeader</text>		</g>
		<g id="shape3-7" v:mID="3" v:groupContext="shape" v:layerMember="0" transform="translate(77.9262,-425.196)">
			<title>1..1 Resource</title>
			<desc>1..1 Resource</desc>
			<v:userDefs/>
			<v:textBlock v:margins="rect(3.99999,3.99999,3.99999,3.99999)" v:tabSpace="42.5196"/>
			<v:textRect cx="-0.00339" cy="566.928" width="53.85" height="17.6036"/>
			<path d="M0 538.59 L0 588.24 L0 595.28" class="st3"/>
			<rect v:rectContext="textBkgnd" x="-21.9955" y="562.128" width="43.9843" height="9.59985" class="st5"/>
			<text x="-22" y="569.33" class="st6" v:langID="1033"><v:paragraph v:horizAlign="1"/><v:tabList/>1..1 Resource</text>		</g>
		<g id="shape4-15" v:mID="4" v:groupContext="shape" transform="translate(632.125,-481.89)">
			<title>Sheet.4</title>
			<desc>Patient</desc>
			<v:userDefs>
				<v:ud v:nameU="visVersion" v:val="VT0(15):26"/>
			</v:userDefs>
			<v:textBlock v:margins="rect(3.99999,3.99999,3.99999,3.99999)" v:tabSpace="42.5196"/>
			<v:textRect cx="45.3542" cy="561.26" width="90.71" height="68.0314"/>
			<rect x="0" y="527.244" width="90.7086" height="68.0314" class="st1"/>
			<text x="30.76" y="564.26" class="st2" v:langID="1033"><v:paragraph v:horizAlign="1"/><v:tabList/>Patient</text>		</g>
		<g id="shape5-18" v:mID="5" v:groupContext="shape" transform="translate(431.164,-462.047)">
			<title>Sheet.5</title>
			<desc>Organization</desc>
			<v:userDefs>
				<v:ud v:nameU="visVersion" v:val="VT0(15):26"/>
			</v:userDefs>
			<v:textBlock v:margins="rect(3.99999,3.99999,3.99999,3.99999)" v:tabSpace="42.5196"/>
			<v:textRect cx="45.3542" cy="561.26" width="90.71" height="68.0314"/>
			<rect x="0" y="527.244" width="90.7086" height="68.0314" class="st1"/>
			<text x="19.32" y="564.26" class="st2" v:langID="1033"><v:paragraph v:horizAlign="1"/><v:tabList/>Organization</text>		</g>
		<a xlink:href="explore_specimen.html">
			<g id="shape6-21" v:mID="6" v:groupContext="shape" transform="translate(32.5686,-73.7015)">
				<title>Sheet.6</title>
				<desc>Specimen</desc>
				<v:userDefs>
					<v:ud v:nameU="visVersion" v:val="VT0(15):26"/>
				</v:userDefs>
				<v:textBlock v:margins="rect(3.99999,3.99999,3.99999,3.99999)" v:tabSpace="42.5196"/>
				<v:textRect cx="45.3542" cy="561.26" width="90.71" height="68.0314"/>
				<rect x="0" y="527.244" width="90.7086" height="68.0314" class="st1"/>
				<text x="25.57" y="564.26" class="st2" v:langID="1033"><v:paragraph v:horizAlign="1"/><v:tabList/>Specimen</text>			</g>
		</a>
		<a xlink:href="explore_diagnostic_report.html">
			<g id="shape7-24" v:mID="7" v:groupContext="shape" transform="translate(32.5686,-209.243)">
				<title>Sheet.7</title>
				<desc>DiagnosticReport</desc>
				<v:userDefs>
					<v:ud v:nameU="visVersion" v:val="VT0(15):26"/>
				</v:userDefs>
				<v:textBlock v:margins="rect(3.99999,3.99999,3.99999,3.99999)" v:tabSpace="42.5196"/>
				<v:textRect cx="45.3542" cy="561.26" width="90.71" height="68.0314"/>
				<rect x="0" y="527.244" width="90.7086" height="68.0314" class="st1"/>
				<text x="10.34" y="564.26" class="st2" v:langID="1033"><v:paragraph v:horizAlign="1"/><v:tabList/>DiagnosticReport</text>			</g>
		</a>
		<a xlink:href="explore_test_group_observation.html">
			<g id="shape8-27" v:mID="8" v:groupContext="shape" transform="translate(340.157,-150.237)">
				<title>Sheet.8</title>
				<desc>Observation (Test Group)</desc>
				<v:userDefs>
					<v:ud v:nameU="visVersion" v:val="VT0(15):26"/>
				</v:userDefs>
				<v:textBlock v:margins="rect(3.99999,3.99999,3.99999,3.99999)" v:tabSpace="42.5196"/>
				<v:textRect cx="45.3542" cy="561.26" width="90.71" height="68.0314"/>
				<rect x="0" y="527.244" width="90.7086" height="68.0314" class="st1"/>
				<text x="9.29" y="558.26" class="st2" v:langID="1033"><v:paragraph v:horizAlign="1"/><v:tabList/>Observation (Test <tspan
							x="31.05" dy="1.2em" class="st7">Group)</tspan></text>			</g>
		</a>
		<a xlink:href="explore_test_result_observation.html">
			<g id="shape9-31" v:mID="9" v:groupContext="shape" transform="translate(521.574,-150.237)">
				<title>Sheet.9</title>
				<desc>Observation (Test Result)</desc>
				<v:userDefs>
					<v:ud v:nameU="visVersion" v:val="VT0(15):26"/>
				</v:userDefs>
				<v:textBlock v:margins="rect(3.99999,3.99999,3.99999,3.99999)" v:tabSpace="42.5196"/>
				<v:textRect cx="45.3542" cy="561.26" width="90.71" height="68.0314"/>
				<rect x="0" y="527.244" width="90.7086" height="68.0314" class="st1"/>
				<text x="9.29" y="558.26" class="st2" v:langID="1033"><v:paragraph v:horizAlign="1"/><v:tabList/>Observation (Test <tspan
							x="31.23" dy="1.2em" class="st7">Result)</tspan></text>			</g>
		</a>
		<a xlink:href="explore_procedure_request.html">
			<g id="shape10-35" v:mID="10" v:groupContext="shape" transform="translate(201.409,-357.165)">
				<title>Sheet.10</title>
				<desc>ProcedureRequest</desc>
				<v:userDefs>
					<v:ud v:nameU="visVersion" v:val="VT0(15):26"/>
				</v:userDefs>
				<v:textBlock v:margins="rect(3.99999,3.99999,3.99999,3.99999)" v:tabSpace="42.5196"/>
				<v:textRect cx="45.3542" cy="561.26" width="90.71" height="68.0314"/>
				<rect x="0" y="527.244" width="90.7086" height="68.0314" class="st1"/>
				<text x="7.73" y="564.26" class="st2" v:langID="1033"><v:paragraph v:horizAlign="1"/><v:tabList/>ProcedureRequest</text>			</g>
		</a>
		<g id="shape11-38" v:mID="11" v:groupContext="shape" transform="translate(362.834,-357.165)">
			<title>Sheet.11</title>
			<desc>Practitioner</desc>
			<v:userDefs>
				<v:ud v:nameU="visVersion" v:val="VT0(15):26"/>
			</v:userDefs>
			<v:textBlock v:margins="rect(3.99999,3.99999,3.99999,3.99999)" v:tabSpace="42.5196"/>
			<v:textRect cx="45.3542" cy="561.26" width="90.71" height="68.0314"/>
			<rect x="0" y="527.244" width="90.7086" height="68.0314" class="st1"/>
			<text x="21.38" y="564.26" class="st2" v:langID="1033"><v:paragraph v:horizAlign="1"/><v:tabList/>Practitioner</text>		</g>
		<g id="shape12-41" v:mID="12" v:groupContext="shape" v:layerMember="0" transform="translate(123.277,-391.177)">
			<title>1..1 Responsible</title>
			<desc>1..1 Responsible</desc>
			<v:userDefs/>
			<v:textBlock v:margins="rect(3.99999,3.99999,3.99999,3.99999)" v:tabSpace="42.5196"/>
			<v:textRect cx="205.147" cy="474.799" width="62.84" height="17.6036"/>
			<path d="M0 595.28 L4.72 595.28 A2.365 2.365 0 0 1 9.45 595.28 L52.02 595.28 L52.02 474.8 L300.85 474.8 L307.89 474.8"
					class="st3"/>
			<rect v:rectContext="textBkgnd" x="179.548" y="469.999" width="53.0192" height="9.59985" class="st5"/>
			<text x="179.55" y="477.2" class="st6" v:langID="1033"><v:paragraph v:horizAlign="2"/><v:tabList/>1..1 Responsible</text>		</g>
		<g id="shape13-48" v:mID="13" v:groupContext="shape" v:layerMember="0" transform="translate(77.9262,-277.271)">
			<title>1..1 Focus</title>
			<desc>1..1 Focus</desc>
			<v:userDefs/>
			<v:textBlock v:margins="rect(3.99999,3.99999,3.99999,3.99999)" v:tabSpace="42.5196"/>
			<v:textRect cx="-0.00339" cy="555.328" width="42.43" height="17.6036"/>
			<path d="M0 515.39 L0 588.24 L0 595.28" class="st3"/>
			<rect v:rectContext="textBkgnd" x="-16.2866" y="550.528" width="32.5665" height="9.59985" class="st5"/>
			<text x="-16.29" y="557.73" class="st6" v:langID="1033"><v:paragraph v:horizAlign="1"/><v:tabList/>1..1 Focus</text>		</g>
		<g id="shape14-55" v:mID="14" v:groupContext="shape" v:layerMember="0" transform="translate(123.277,-250.34)">
			<title>0..1 Organization</title>
			<desc>0..1 Organization</desc>
			<v:userDefs/>
			<v:textBlock v:margins="rect(3.99999,3.99999,3.99999,3.99999)" v:tabSpace="42.5196"/>
			<v:textRect cx="140.228" cy="347.852" width="65.43" height="17.6036"/>
			<path d="M0 595.28 L63.96 595.28 L63.96 349.56 L300.85 349.56 L307.89 349.56" class="st3"/>
			<rect v:rectContext="textBkgnd" x="112.423" y="343.052" width="55.6092" height="9.59985" class="st5"/>
			<text x="112.42" y="350.25" class="st6" v:langID="1033"><v:paragraph v:horizAlign="1"/><v:tabList/>0..1 Organization</text>		</g>
		<g id="shape15-62" v:mID="15" v:groupContext="shape" v:layerMember="0" transform="translate(385.511,-218.264)">
			<title>0..1 Performer</title>
			<desc>0..1 Performer</desc>
			<v:userDefs/>
			<v:textBlock v:margins="rect(3.99999,3.99999,3.99999,3.99999)" v:tabSpace="42.5196"/>
			<v:textRect cx="50.6526" cy="522.988" width="57.29" height="17.6036"/>
			<path d="M0 595.28 L0 524.11 L91.01 524.11 L91.01 358.54 L91.01 351.5" class="st3"/>
			<rect v:rectContext="textBkgnd" x="26.9183" y="518.188" width="47.4689" height="9.59985" class="st5"/>
			<text x="26.92" y="525.39" class="st6" v:langID="1033"><v:paragraph v:horizAlign="1"/><v:tabList/>0..1 Performer</text>		</g>
		<g id="shape16-69" v:mID="16" v:groupContext="shape" v:layerMember="0" transform="translate(521.868,-218.264)">
			<title>Sheet.16</title>
			<desc>0..1 Performer</desc>
			<v:userDefs/>
			<v:textBlock v:margins="rect(3.99999,3.99999,3.99999,3.99999)" v:tabSpace="42.5196"/>
			<v:textRect cx="36.5542" cy="337.319" width="57.29" height="17.6036"/>
			<path d="M45.06 595.28 L45.06 544.79 L69.68 544.79 L69.68 337.32 L7.04 337.32 L0 337.32" class="st3"/>
			<rect v:rectContext="textBkgnd" x="12.8198" y="332.519" width="47.4689" height="9.59985" class="st5"/>
			<text x="12.82" y="339.72" class="st6" v:langID="1033"><v:paragraph v:horizAlign="1"/><v:tabList/>0..1 Performer</text>		</g>
		<g id="shape17-76" v:mID="17" v:groupContext="shape" v:layerMember="0" transform="translate(123.277,-188.225)">
			<title>0..* Result</title>
			<desc>0..* Result</desc>
			<v:userDefs/>
			<v:textBlock v:margins="rect(3.99999,3.99999,3.99999,3.99999)" v:tabSpace="42.5196"/>
			<v:textRect cx="89.4255" cy="595.28" width="43.88" height="17.6036"/>
			<path d="M0 557.26 L10.63 557.26 L10.63 595.28 L209.84 595.28 L216.88 595.28" class="st3"/>
			<rect v:rectContext="textBkgnd" x="72.3964" y="590.481" width="34.0584" height="9.59985" class="st5"/>
			<text x="72.4" y="597.68" class="st6" v:langID="1033"><v:paragraph v:horizAlign="1"/><v:tabList/>0..* Result</text>		</g>
		<g id="shape18-83" v:mID="18" v:groupContext="shape" v:layerMember="0" transform="translate(386.078,-127.562)">
			<title>1..1 Patient</title>
			<desc>1..1 Patient</desc>
			<v:userDefs/>
			<v:textBlock v:margins="rect(3.99999,3.99999,3.99999,3.99999)" v:tabSpace="42.5196"/>
			<v:textRect cx="284.954" cy="595.278" width="47.12" height="17.6036"/>
			<path d="M0 572.61 L0 595.28 L177.92 595.28 A2.365 2.365 0 0 1 182.65 595.28 L291.4 595.28 L291.4 247.99 L291.4 240.95"
					class="st3"/>
			<rect v:rectContext="textBkgnd" x="266.303" y="590.479" width="37.3005" height="9.59985" class="st5"/>
			<text x="266.3" y="597.68" class="st6" v:langID="1033"><v:paragraph v:horizAlign="1"/><v:tabList/>1..1 Patient</text>		</g>
		<g id="shape19-90" v:mID="19" v:groupContext="shape" v:layerMember="0" transform="translate(612.282,-184.248)">
			<title>Sheet.19</title>
			<desc>1..1 Patient</desc>
			<v:userDefs/>
			<v:textBlock v:margins="rect(3.99999,3.99999,3.99999,3.99999)" v:tabSpace="42.5196"/>
			<v:textRect cx="43.0865" cy="467.996" width="47.12" height="17.6036"/>
			<path d="M0 595.28 L43.09 595.28 L43.09 304.68 L43.09 297.64" class="st3"/>
			<rect v:rectContext="textBkgnd" x="24.4364" y="463.196" width="37.3005" height="9.59985" class="st5"/>
			<text x="24.44" y="470.4" class="st6" v:langID="1033"><v:paragraph v:horizAlign="1"/><v:tabList/>1..1 Patient</text>		</g>
		<g id="shape20-97" v:mID="20" v:groupContext="shape" v:layerMember="0" transform="translate(123.277,-85.0356)">
			<title>Sheet.20</title>
			<desc>1..1 Patient</desc>
			<v:userDefs/>
			<v:textBlock v:margins="rect(3.99999,3.99999,3.99999,3.99999)" v:tabSpace="42.5196"/>
			<v:textRect cx="228.883" cy="594.704" width="47.12" height="17.6036"/>
			<path d="M0 595.28 L575.69 595.28 L575.69 205.47 L575.69 198.43" class="st3"/>
			<rect v:rectContext="textBkgnd" x="210.232" y="589.905" width="37.3005" height="9.59985" class="st5"/>
			<text x="210.23" y="597.1" class="st6" v:langID="1033"><v:paragraph v:horizAlign="1"/><v:tabList/>1..1 Patient</text>		</g>
		<g id="shape21-104" v:mID="21" v:groupContext="shape" v:layerMember="0" transform="translate(77.9262,-141.738)">
			<title>0..* Specimen</title>
			<desc>0..* Specimen</desc>
			<v:userDefs/>
			<v:textBlock v:margins="rect(3.99999,3.99999,3.99999,3.99999)" v:tabSpace="42.5196"/>
			<v:textRect cx="-0.00339" cy="561.526" width="55.41" height="17.6036"/>
			<path d="M0 527.78 L0 588.24 L0 595.28" class="st3"/>
			<rect v:rectContext="textBkgnd" x="-22.7727" y="556.726" width="45.5386" height="9.59985" class="st5"/>
			<text x="-22.77" y="563.93" class="st6" v:langID="1033"><v:paragraph v:horizAlign="1"/><v:tabList/>0..* Specimen</text>		</g>
		<g id="shape22-111" v:mID="22" v:groupContext="shape" v:layerMember="0" transform="translate(430.864,-204.094)">
			<title>0..* Related</title>
			<desc>0..* Related</desc>
			<v:userDefs/>
			<v:textBlock v:margins="rect(3.99999,3.99999,3.99999,3.99999)" v:tabSpace="42.5196"/>
			<v:textRect cx="45.3556" cy="595.274" width="48.56" height="17.6036"/>
			<path d="M90.71 595.28 L24.1 595.28 L7.04 595.28 L0 595.28" class="st3"/>
			<rect v:rectContext="textBkgnd" x="25.9846" y="590.475" width="38.7419" height="9.59985" class="st5"/>
			<text x="25.98" y="597.67" class="st6" v:langID="1033"><v:paragraph v:horizAlign="1"/><v:tabList/>0..* Related</text>		</g>
		<g id="shape23-118" v:mID="23" v:groupContext="shape" v:layerMember="0" transform="translate(430.865,-184.255)">
			<title>Sheet.23</title>
			<desc>0..* Related</desc>
			<v:userDefs/>
			<v:textBlock v:margins="rect(3.99999,3.99999,3.99999,3.99999)" v:tabSpace="42.5196"/>
			<v:textRect cx="45.3542" cy="595.277" width="48.56" height="17.6036"/>
			<path d="M0 595.28 L83.67 595.28 L90.71 595.28" class="st3"/>
			<rect v:rectContext="textBkgnd" x="25.9832" y="590.478" width="38.7419" height="9.59985" class="st5"/>
			<text x="25.98" y="597.68" class="st6" v:langID="1033"><v:paragraph v:horizAlign="1"/><v:tabList/>0..* Related</text>		</g>
		<g id="shape24-125" v:mID="24" v:groupContext="shape" v:layerMember="0" transform="translate(123.275,-138.6)">
			<title>Sheet.24</title>
			<desc>0..* Specimen</desc>
			<v:userDefs/>
			<v:textBlock v:margins="rect(3.99999,3.99999,3.99999,3.99999)" v:tabSpace="42.5196"/>
			<v:textRect cx="37.5189" cy="595.276" width="55.36" height="17.6036"/>
			<path d="M239.41 583.64 L239.41 595.28 L7.04 595.28 L0 595.28" class="st3"/>
			<rect v:rectContext="textBkgnd" x="14.7496" y="590.477" width="45.5386" height="9.59985" class="st5"/>
			<text x="14.75" y="597.68" class="st6" v:langID="1033"><v:paragraph v:horizAlign="1"/><v:tabList/>0..* Specimen</text>		</g>
		<g id="shape25-132" v:mID="25" v:groupContext="shape" v:layerMember="0" transform="translate(123.277,-240.374)">
			<title>0..* basedOn</title>
			<desc>0..* basedOn</desc>
			<v:userDefs/>
			<v:textBlock v:margins="rect(3.99999,3.99999,3.99999,3.99999)" v:tabSpace="42.5196"/>
			<v:textRect cx="120.137" cy="595.271" width="52.55" height="17.6036"/>
			<path d="M0 595.28 L123.49 595.28 L123.49 485.53 L123.49 478.49" class="st3"/>
			<rect v:rectContext="textBkgnd" x="98.7697" y="590.472" width="42.7343" height="9.59985" class="st5"/>
			<text x="98.77" y="597.67" class="st6" v:langID="1033"><v:paragraph v:horizAlign="1"/><v:tabList/>0..* basedOn</text>		</g>
		<g id="shape26-139" v:mID="26" v:groupContext="shape" v:layerMember="0" transform="translate(251.582,-425.193)">
			<title>1..1 requester</title>
			<desc>1..1 requester</desc>
			<v:userDefs/>
			<v:textBlock v:margins="rect(3.99999,3.99999,3.99999,3.99999)" v:tabSpace="42.5196"/>
			<v:textRect cx="61.728" cy="539.146" width="55.51" height="17.6036"/>
			<path d="M0 595.28 L0 539.15 L172.54 539.15 L179.58 539.15" class="st3"/>
			<rect v:rectContext="textBkgnd" x="38.8823" y="534.346" width="45.6913" height="9.59985" class="st5"/>
			<text x="38.88" y="541.55" class="st6" v:langID="1033"><v:paragraph v:horizAlign="1"/><v:tabList/>1..1 requester</text>		</g>
		<g id="shape27-146" v:mID="27" v:groupContext="shape" v:layerMember="0" transform="translate(123.282,-102.612)">
			<title>Sheet.27</title>
			<desc>0..* Specimen</desc>
			<v:userDefs/>
			<v:textBlock v:margins="rect(3.99999,3.99999,3.99999,3.99999)" v:tabSpace="42.5196"/>
			<v:textRect cx="344.389" cy="595.84" width="55.36" height="17.6036"/>
			<path d="M443.08 547.66 L443.08 595.28 L7.04 595.28 L0 595.28" class="st3"/>
			<rect v:rectContext="textBkgnd" x="321.619" y="591.041" width="45.5386" height="9.59985" class="st5"/>
			<text x="321.62" y="598.24" class="st6" v:langID="1033"><v:paragraph v:horizAlign="1"/><v:tabList/>0..* Specimen</text>		</g>
		<g id="shape28-153" v:mID="28" v:groupContext="shape" v:layerMember="0" transform="translate(123.277,-234.138)">
			<title>Sheet.28</title>
			<desc>0..1 Performer</desc>
			<v:userDefs/>
			<v:textBlock v:margins="rect(3.99999,3.99999,3.99999,3.99999)" v:tabSpace="42.5196"/>
			<v:textRect cx="198.298" cy="595.271" width="57.29" height="17.6036"/>
			<path d="M0 595.28 L202.71 595.28 L202.71 438.24 L232.52 438.24 L239.56 438.24" class="st3"/>
			<rect v:rectContext="textBkgnd" x="174.563" y="590.472" width="47.4689" height="9.59985" class="st5"/>
			<text x="174.56" y="597.67" class="st6" v:langID="1033"><v:paragraph v:horizAlign="1"/><v:tabList/>0..1 Performer</text>		</g>
		<g id="shape29-160" v:mID="29" v:groupContext="shape" v:layerMember="0" transform="translate(362.863,-218.264)">
			<title>Sheet.29</title>
			<desc>0..1 Performer</desc>
			<v:userDefs/>
			<v:textBlock v:margins="rect(3.99999,3.99999,3.99999,3.99999)" v:tabSpace="42.5196"/>
			<v:textRect cx="16.9781" cy="481.431" width="57.29" height="17.6036"/>
			<path d="M0 595.28 L0 494.77 L16.41 494.77 L16.41 463.42 L16.41 456.38" class="st3"/>
			<rect v:rectContext="textBkgnd" x="-6.75627" y="476.631" width="47.4689" height="9.59985" class="st5"/>
			<text x="-6.76" y="483.83" class="st6" v:langID="1033"><v:paragraph v:horizAlign="1"/><v:tabList/>0..1 Performer</text>		</g>
		<g id="shape30-167" v:mID="30" v:groupContext="shape" v:layerMember="0" transform="translate(292.118,-411.02)">
			<title>Sheet.30</title>
			<desc>0..1 Performer</desc>
			<v:userDefs/>
			<v:textBlock v:margins="rect(3.99999,3.99999,3.99999,3.99999)" v:tabSpace="42.5196"/>
			<v:textRect cx="35.075" cy="595.271" width="57.29" height="17.6036"/>
			<path d="M0 594.71 L10.63 594.71 L10.63 595.28 L63.68 595.28 L70.72 595.28" class="st3"/>
			<rect v:rectContext="textBkgnd" x="11.3406" y="590.472" width="47.4689" height="9.59985" class="st5"/>
			<text x="11.34" y="597.67" class="st6" v:langID="1033"><v:paragraph v:horizAlign="1"/><v:tabList/>0..1 Performer</text>		</g>
		<g id="shape31-174" v:mID="31" v:groupContext="shape" v:layerMember="0" transform="translate(453.543,-218.264)">
			<title>Sheet.31</title>
			<desc>0..1 Performer</desc>
			<v:userDefs/>
			<v:textBlock v:margins="rect(3.99999,3.99999,3.99999,3.99999)" v:tabSpace="42.5196"/>
			<v:textRect cx="81.3747" cy="422.358" width="57.29" height="17.6036"/>
			<path d="M101.48 595.28 L101.48 423.5 L25.34 423.5 A2.365 2.365 -180 1 0 20.61 423.5 L7.04 423.5 L0 423.5" class="st3"/>
			<rect v:rectContext="textBkgnd" x="57.6403" y="417.558" width="47.4689" height="9.59985" class="st5"/>
			<text x="57.64" y="424.76" class="st6" v:langID="1033"><v:paragraph v:horizAlign="1"/><v:tabList/>0..1 Performer</text>		</g>
		<g id="shape32-181" v:mID="32" v:groupContext="shape" v:layerMember="0" transform="translate(276.184,-425.193)">
			<title>Sheet.32</title>
			<desc>1..1 Patient</desc>
			<v:userDefs/>
			<v:textBlock v:margins="rect(3.99999,3.99999,3.99999,3.99999)" v:tabSpace="42.5196"/>
			<v:textRect cx="103.258" cy="575.354" width="47.12" height="17.6036"/>
			<path d="M0 595.28 L0 576.63 L197.97 576.63 A2.365 2.365 0 0 1 202.7 576.63 L313 576.63 A2.3622 2.3622 0 0 1 317.72 576.63
						 L345.31 576.63 L345.31 505.98 L348.9 505.98 L355.94 505.98" class="st3"/>
			<rect v:rectContext="textBkgnd" x="84.6077" y="570.554" width="37.3005" height="9.59985" class="st5"/>
			<text x="84.61" y="577.75" class="st6" v:langID="1033"><v:paragraph v:horizAlign="1"/><v:tabList/>1..1 Patient</text>		</g>
		<g id="shape33-188" v:mID="33" v:groupContext="shape" v:layerMember="0" transform="translate(109.417,-277.269)">
			<title>Sheet.33</title>
			<desc>1..1 Patient</desc>
			<v:userDefs/>
			<v:textBlock v:margins="rect(3.99999,3.99999,3.99999,3.99999)" v:tabSpace="42.5196"/>
			<v:textRect cx="129.991" cy="332.545" width="47.12" height="17.6036"/>
			<path d="M0 595.28 L0 522.47 L20.95 522.47 L20.95 332.55 L515.67 332.55 L522.71 332.55" class="st3"/>
			<rect v:rectContext="textBkgnd" x="111.341" y="327.745" width="37.3005" height="9.59985" class="st5"/>
			<text x="111.34" y="334.95" class="st6" v:langID="1033"><v:paragraph v:horizAlign="1"/><v:tabList/>1..1 Patient</text>		</g>
	</g>
</svg>
