<?xml version="1.0" encoding="UTF-8" standalone="no"?>
<!-- Generated by Microsoft Visio, SVG Export bundle diagram.svg Page-1 -->
<svg xmlns="http://www.w3.org/2000/svg" xmlns:xlink="http://www.w3.org/1999/xlink" xmlns:ev="http://www.w3.org/2001/xml-events"
		xmlns:v="http://schemas.microsoft.com/visio/2003/SVGExtensions/" width="11.6929in" height="8.26772in"
		viewBox="0 0 841.89 595.276" xml:space="preserve" color-interpolation-filters="sRGB" class="st10">
	<v:documentProperties v:langID="1033" v:metric="true" v:viewMarkup="false">
		<v:userDefs>
			<v:ud v:nameU="msvSubprocessMaster" v:prompt="" v:val="VT4(Rectangle)"/>
			<v:ud v:nameU="msvNoAutoConnect" v:val="VT0(1):26"/>
		</v:userDefs>
	</v:documentProperties>

	<style type="text/css">
	<![CDATA[
		.st1 {fill:#4672c4;stroke:#c7c8c8;stroke-width:0.25}
		.st2 {fill:#feffff;font-family:Calibri;font-size:0.833336em}
		.st3 {marker-end:url(#mrkr4-12);stroke:#4672c4;stroke-linecap:round;stroke-linejoin:round;stroke-width:1}
		.st4 {fill:#4672c4;fill-opacity:1;stroke:#4672c4;stroke-opacity:1;stroke-width:0.28409090909091}
		.st5 {fill:#ffffff;stroke:none;stroke-linecap:butt;stroke-width:7.2}
		.st6 {fill:#ff0000;font-family:Calibri;font-size:0.666664em}
		.st7 {font-size:1em}
		.st8 {fill:#ffffff;stroke:none;stroke-linecap:butt}
		.st9 {marker-end:url(#mrkr4-120);stroke:#4672c4;stroke-linecap:round;stroke-linejoin:round;stroke-width:1}
		.st10 {fill:none;fill-rule:evenodd;font-size:12px;overflow:visible;stroke-linecap:square;stroke-miterlimit:3}
	]]>
	</style>

	<defs id="Markers">
		<g id="lend4">
			<path d="M 2 1 L 0 0 L 2 -1 L 2 1 " style="stroke:none"/>
		</g>
		<marker id="mrkr4-12" class="st4" v:arrowType="4" v:arrowSize="2" v:setback="7.04" refX="-7.04" orient="auto"
				markerUnits="strokeWidth" overflow="visible">
			<use xlink:href="#lend4" transform="scale(-3.52,-3.52) "/>
		</marker>
		<marker id="mrkr4-120" class="st4" v:arrowType="4" v:arrowSize="2" v:setback="0" refX="-0" orient="auto"
				markerUnits="strokeWidth" overflow="visible">
			<use xlink:href="#lend4" transform="scale(-3.52,-3.52) "/>
		</marker>
	</defs>
	<g v:mID="0" v:index="1" v:groupContext="foregroundPage">
		<v:userDefs>
			<v:ud v:nameU="msvThemeOrder" v:val="VT0(0):26"/>
		</v:userDefs>
		<title>Page-1</title>
		<v:pageProperties v:drawingScale="0.0393701" v:pageScale="0.0393701" v:drawingUnits="24" v:shadowOffsetX="8.50394"
				v:shadowOffsetY="-8.50394"/>
		<v:layer v:name="Connector" v:index="0"/>
		<g id="shape1-1" v:mID="1" v:groupContext="shape" transform="translate(32.5686,-481.89)">
			<title>Click for how to map to Bundle</title>
			<desc>Bundle</desc>
			<v:userDefs>
				<v:ud v:nameU="visVersion" v:val="VT0(15):26"/>
			</v:userDefs>
			<v:textBlock v:margins="rect(4,4,4,4)" v:tabSpace="42.5197"/>
			<v:textRect cx="45.3543" cy="561.26" width="90.71" height="68.0315"/>
			<rect x="0" y="527.244" width="90.7087" height="68.0315" class="st1"/>
			<text x="31.12" y="564.26" class="st2" v:langID="2057"><v:paragraph v:horizAlign="1"/><v:tabList/>Bundle</text>		</g>
		<g id="shape2-4" v:mID="2" v:groupContext="shape" transform="translate(32.5686,-357.165)">
			<title>Click for how to map to Bundle</title>
			<desc>MessageHeader</desc>
			<v:userDefs>
				<v:ud v:nameU="visVersion" v:val="VT0(15):26"/>
			</v:userDefs>
			<v:textBlock v:margins="rect(4,4,4,4)" v:tabSpace="42.5197"/>
			<v:textRect cx="45.3543" cy="561.26" width="90.71" height="68.0315"/>
			<rect x="0" y="527.244" width="90.7087" height="68.0315" class="st1"/>
			<text x="12.59" y="564.26" class="st2" v:langID="2057"><v:paragraph v:horizAlign="1"/><v:tabList/>MessageHeader</text>		</g>
		<g id="shape4-7" v:mID="4" v:groupContext="shape" v:layerMember="0" transform="translate(70.8363,-481.89)">
			<title>Dynamic connector</title>
			<desc>1..1 Resource</desc>
			<v:textBlock v:margins="rect(4,4,4,4)" v:tabSpace="42.5197"/>
			<v:textRect cx="7.08661" cy="623.622" width="53.8" height="17.6036"/>
			<path d="M7.09 595.28 L7.09 644.93" class="st3"/>
			<rect v:rectContext="textBkgnd" x="-14.9054" y="618.822" width="43.9843" height="9.59985" class="st5"/>
			<text x="-14.91" y="626.02" class="st6" v:langID="2057"><v:paragraph v:horizAlign="1"/><v:tabList/>1..1 Resource</text>		</g>
		<g id="shape5-15" v:mID="5" v:groupContext="shape" transform="translate(714.331,-481.89)">
			<title>Click for how to map to Bundle</title>
			<desc>Patient</desc>
			<v:userDefs>
				<v:ud v:nameU="visVersion" v:val="VT0(15):26"/>
			</v:userDefs>
			<v:textBlock v:margins="rect(4,4,4,4)" v:tabSpace="42.5197"/>
			<v:textRect cx="45.3543" cy="561.26" width="90.71" height="68.0315"/>
			<rect x="0" y="527.244" width="90.7087" height="68.0315" class="st1"/>
			<text x="30.76" y="564.26" class="st2" v:langID="2057"><v:paragraph v:horizAlign="1"/><v:tabList/>Patient</text>		</g>
		<g id="shape6-18" v:mID="6" v:groupContext="shape" transform="translate(496.063,-481.89)">
			<title>Click for how to map to Bundle</title>
			<desc>Organization</desc>
			<v:userDefs>
				<v:ud v:nameU="visVersion" v:val="VT0(15):26"/>
			</v:userDefs>
			<v:textBlock v:margins="rect(4,4,4,4)" v:tabSpace="42.5197"/>
			<v:textRect cx="45.3543" cy="561.26" width="90.71" height="68.0315"/>
			<rect x="0" y="527.244" width="90.7087" height="68.0315" class="st1"/>
			<text x="19.32" y="564.26" class="st2" v:langID="2057"><v:paragraph v:horizAlign="1"/><v:tabList/>Organization</text>		</g>
		<g id="shape7-21" v:mID="7" v:groupContext="shape" transform="translate(32.5686,-28.3465)">
			<title>Click for how to map to Bundle</title>
			<desc>Specimen</desc>
			<v:userDefs>
				<v:ud v:nameU="visVersion" v:val="VT0(15):26"/>
			</v:userDefs>
			<v:textBlock v:margins="rect(4,4,4,4)" v:tabSpace="42.5197"/>
			<v:textRect cx="45.3543" cy="561.26" width="90.71" height="68.0315"/>
			<rect x="0" y="527.244" width="90.7087" height="68.0315" class="st1"/>
			<text x="25.57" y="564.26" class="st2" v:langID="2057"><v:paragraph v:horizAlign="1"/><v:tabList/>Specimen</text>		</g>
		<g id="shape8-24" v:mID="8" v:groupContext="shape" transform="translate(32.5686,-209.242)">
			<title>Click for how to map to Bundle</title>
			<desc>DiagnosticReport</desc>
			<v:userDefs>
				<v:ud v:nameU="visVersion" v:val="VT0(15):26"/>
			</v:userDefs>
			<v:textBlock v:margins="rect(4,4,4,4)" v:tabSpace="42.5197"/>
			<v:textRect cx="45.3543" cy="561.26" width="90.71" height="68.0315"/>
			<rect x="0" y="527.244" width="90.7087" height="68.0315" class="st1"/>
			<text x="10.34" y="564.26" class="st2" v:langID="2057"><v:paragraph v:horizAlign="1"/><v:tabList/>DiagnosticReport</text>		</g>
		<g id="shape9-27" v:mID="9" v:groupContext="shape" transform="translate(358.553,-124.948)">
			<title>Click for how to map to Bundle</title>
			<desc>Observation (Test Group)</desc>
			<v:userDefs>
				<v:ud v:nameU="visVersion" v:val="VT0(15):26"/>
			</v:userDefs>
			<v:textBlock v:margins="rect(4,4,4,4)" v:tabSpace="42.5197"/>
			<v:textRect cx="45.3543" cy="561.26" width="90.71" height="68.0315"/>
			<rect x="0" y="527.244" width="90.7087" height="68.0315" class="st1"/>
			<text x="9.29" y="558.26" class="st2" v:langID="2057"><v:paragraph v:horizAlign="1"/><v:tabList/>Observation (Test <tspan
						x="31.05" dy="1.2em" class="st7">Group)</tspan></text>		</g>
		<g id="shape10-31" v:mID="10" v:groupContext="shape" transform="translate(620.787,-124.948)">
			<title>Click for how to map to Bundle</title>
			<desc>Observation (Test Result)</desc>
			<v:userDefs>
				<v:ud v:nameU="visVersion" v:val="VT0(15):26"/>
			</v:userDefs>
			<v:textBlock v:margins="rect(4,4,4,4)" v:tabSpace="42.5197"/>
			<v:textRect cx="45.3543" cy="561.26" width="90.71" height="68.0315"/>
			<rect x="0" y="527.244" width="90.7087" height="68.0315" class="st1"/>
			<text x="9.29" y="558.26" class="st2" v:langID="2057"><v:paragraph v:horizAlign="1"/><v:tabList/>Observation (Test <tspan
						x="31.23" dy="1.2em" class="st7">Result)</tspan></text>		</g>
		<g id="shape11-35" v:mID="11" v:groupContext="shape" transform="translate(496.063,-198.425)">
			<title>Click for how to map to Bundle</title>
			<desc>Observation (Test Report Filing)</desc>
			<v:userDefs>
				<v:ud v:nameU="visVersion" v:val="VT0(15):26"/>
			</v:userDefs>
			<v:textBlock v:margins="rect(4,4,4,4)" v:tabSpace="42.5197"/>
			<v:textRect cx="45.3543" cy="561.26" width="90.71" height="68.0315"/>
			<rect x="0" y="527.244" width="90.7087" height="68.0315" class="st1"/>
			<text x="9.29" y="558.26" class="st2" v:langID="2057"><v:paragraph v:horizAlign="1"/><v:tabList/>Observation (Test <tspan
						x="18.1" dy="1.2em" class="st7">Report Filing)</tspan></text>		</g>
		<g id="shape12-39" v:mID="12" v:groupContext="shape" transform="translate(231.367,-357.165)">
			<title>Click for how to map to Bundle/title>
			<desc>ProcedureRequest</desc>
			<v:userDefs>
				<v:ud v:nameU="visVersion" v:val="VT0(15):26"/>
			</v:userDefs>
			<v:textBlock v:margins="rect(4,4,4,4)" v:tabSpace="42.5197"/>
			<v:textRect cx="45.3543" cy="561.26" width="90.71" height="68.0315"/>
			<rect x="0" y="527.244" width="90.7087" height="68.0315" class="st1"/>
			<text x="7.73" y="564.26" class="st2" v:langID="2057"><v:paragraph v:horizAlign="1"/><v:tabList/>ProcedureRequest</text>		</g>
		<g id="shape13-42" v:mID="13" v:groupContext="shape" transform="translate(379.843,-357.165)">
			<title>Click for how to map to Bundle</title>
			<desc>Practitioner</desc>
			<v:userDefs>
				<v:ud v:nameU="visVersion" v:val="VT0(15):26"/>
			</v:userDefs>
			<v:textBlock v:margins="rect(4,4,4,4)" v:tabSpace="42.5197"/>
			<v:textRect cx="45.3543" cy="561.26" width="90.71" height="68.0315"/>
			<rect x="0" y="527.244" width="90.7087" height="68.0315" class="st1"/>
			<text x="21.38" y="564.26" class="st2" v:langID="2057"><v:paragraph v:horizAlign="1"/><v:tabList/>Practitioner</text>		</g>
		<g id="shape15-45" v:mID="15" v:groupContext="shape" v:layerMember="0" transform="translate(123.277,-391.181)">
			<title>1..1 Responsible</title>
			<desc>1..1 Responsible</desc>
			<v:textBlock v:margins="rect(4,4,4,4)" v:tabSpace="42.5197"/>
			<v:textRect cx="249.721" cy="454.961" width="62.84" height="17.6036"/>
			<path d="M0 595.28 L30.27 595.28 A2.3622 2.3622 0 1 1 34.99 595.28 L75.15 595.28 L75.15 454.96 L365.75 454.96"
					class="st3"/>
			<rect v:rectContext="textBkgnd" x="224.117" y="450.161" width="53.0192" height="9.59985" class="st5"/>
			<text x="224.12" y="457.36" class="st6" v:langID="2057"><v:paragraph v:horizAlign="2"/><v:tabList/>1..1 Responsible</text>		</g>
		<g id="shape16-52" v:mID="16" v:groupContext="shape" v:layerMember="0" transform="translate(70.8363,-357.165)">
			<title>1..1 Focus</title>
			<desc>1..1 Focus</desc>
			<v:textBlock v:margins="rect(4,4,4,4)" v:tabSpace="42.5197"/>
			<v:textRect cx="7.08661" cy="635.222" width="42.38" height="17.6036"/>
			<path d="M7.09 595.28 L7.09 668.13" class="st3"/>
			<rect v:rectContext="textBkgnd" x="-9.19653" y="630.422" width="32.5665" height="9.59985" class="st5"/>
			<text x="-9.2" y="637.62" class="st6" v:langID="2057"><v:paragraph v:horizAlign="1"/><v:tabList/>1..1 Focus</text>		</g>
		<g id="shape17-59" v:mID="17" v:groupContext="shape" v:layerMember="0" transform="translate(123.277,-250.344)">
			<title>0..1 Organization</title>
			<desc>0..1 Organization</desc>
			<v:textBlock v:margins="rect(4,4,4,4)" v:tabSpace="42.5197"/>
			<v:textRect cx="179.463" cy="328.013" width="65.43" height="17.6036"/>
			<path d="M0 595.28 L96.9 595.28 L96.9 329.71 L365.75 329.71" class="st3"/>
			<rect v:rectContext="textBkgnd" x="151.658" y="323.214" width="55.6092" height="9.59985" class="st5"/>
			<text x="151.66" y="330.41" class="st6" v:langID="2057"><v:paragraph v:horizAlign="1"/><v:tabList/>0..1 Organization</text>		</g>
		<g id="shape18-66" v:mID="18" v:groupContext="shape" v:layerMember="0" transform="translate(403.907,-192.98)">
			<title>0..1 Performer</title>
			<desc>0..1 Performer</desc>
			<v:textBlock v:margins="rect(4,4,4,4)" v:tabSpace="42.5197"/>
			<v:textRect cx="58.707" cy="497.704" width="57.29" height="17.6036"/>
			<path d="M0 595.28 L0 498.82 L137.51 498.82 L137.51 313.41" class="st3"/>
			<rect v:rectContext="textBkgnd" x="34.9726" y="492.904" width="47.4689" height="9.59985" class="st5"/>
			<text x="34.97" y="500.1" class="st6" v:langID="2057"><v:paragraph v:horizAlign="1"/><v:tabList/>0..1 Performer</text>		</g>
		<g id="shape19-73" v:mID="19" v:groupContext="shape" v:layerMember="0" transform="translate(666.142,-192.98)">
			<title>0..1 Performer</title>
			<desc>0..1 Performer</desc>
			<v:textBlock v:margins="rect(4,4,4,4)" v:tabSpace="42.5197"/>
			<v:textRect cx="-39.685" cy="292.192" width="57.29" height="17.6036"/>
			<path d="M0 595.28 L0 292.19 L-72.33 292.19" class="st3"/>
			<rect v:rectContext="textBkgnd" x="-63.4194" y="287.393" width="47.4689" height="9.59985" class="st8"/>
			<text x="-63.42" y="294.59" class="st6" v:langID="2057"><v:paragraph v:horizAlign="1"/><v:tabList/>0..1 Performer</text>		</g>
		<g id="shape22-80" v:mID="22" v:groupContext="shape" v:layerMember="0" transform="translate(123.277,-226.249)">
			<title>0..* Result</title>
			<desc>0..* Result</desc>
			<v:textBlock v:margins="rect(4,4,4,4)" v:tabSpace="42.5197"/>
			<v:textRect cx="85.9793" cy="658.593" width="43.88" height="17.6036"/>
			<path d="M0 595.28 L10.63 595.28 L10.63 658.59 L228.24 658.59" class="st3"/>
			<rect v:rectContext="textBkgnd" x="68.9502" y="653.793" width="34.0584" height="9.59985" class="st5"/>
			<text x="68.95" y="660.99" class="st6" v:langID="2057"><v:paragraph v:horizAlign="1"/><v:tabList/>0..* Result</text>		</g>
		<g id="shape24-87" v:mID="24" v:groupContext="shape" v:layerMember="0" transform="translate(404.474,-124.948)">
			<title>1..1 Patient</title>
			<desc>1..1 Patient</desc>
			<v:textBlock v:margins="rect(4,4,4,4)" v:tabSpace="42.5197"/>
			<v:textRect cx="323.463" cy="649.358" width="47.12" height="17.6036"/>
			<path d="M0 595.28 L0 649.36 L258.74 649.36 A2.3622 2.3622 0 1 1 263.46 649.36 L355.21 649.36 L355.21 245.37"
					class="st3"/>
			<rect v:rectContext="textBkgnd" x="304.813" y="644.558" width="37.3005" height="9.59985" class="st8"/>
			<text x="304.81" y="651.76" class="st6" v:langID="2057"><v:paragraph v:horizAlign="1"/><v:tabList/>1..1 Patient</text>		</g>
		<g id="shape25-94" v:mID="25" v:groupContext="shape" v:layerMember="0" transform="translate(711.496,-158.964)">
			<title>1..1 Patient</title>
			<desc>1..1 Patient</desc>
			<v:textBlock v:margins="rect(4,4,4,4)" v:tabSpace="42.5197"/>
			<v:textRect cx="26.0787" cy="446.852" width="47.12" height="17.6036"/>
			<path d="M0 595.28 L26.08 595.28 L26.08 279.39" class="st3"/>
			<rect v:rectContext="textBkgnd" x="7.42857" y="442.052" width="37.3005" height="9.59985" class="st5"/>
			<text x="7.43" y="449.25" class="st6" v:langID="2057"><v:paragraph v:horizAlign="1"/><v:tabList/>1..1 Patient</text>		</g>
		<g id="shape1000-101" v:mID="1000" v:groupContext="shape" v:layerMember="0" transform="translate(123.277,-39.685)">
			<title>1..1 Patient</title>
			<desc>1..1 Patient</desc>
			<v:textBlock v:margins="rect(4,4,4,4)" v:tabSpace="42.5197"/>
			<v:textRect cx="554.188" cy="595.276" width="47.12" height="17.6036"/>
			<path d="M0 595.28 L666.17 595.28 L666.17 160.11" class="st3"/>
			<rect v:rectContext="textBkgnd" x="535.538" y="590.476" width="37.3005" height="9.59985" class="st5"/>
			<text x="535.54" y="597.68" class="st6" v:langID="2057"><v:paragraph v:horizAlign="1"/><v:tabList/>1..1 Patient</text>		</g>
		<g id="shape1001-108" v:mID="1001" v:groupContext="shape" v:layerMember="0" transform="translate(70.8363,-209.242)">
			<title>0..* Specimen</title>
			<desc>0..* Specimen</desc>
			<v:textBlock v:margins="rect(4,4,4,4)" v:tabSpace="42.5197"/>
			<v:textRect cx="7.08661" cy="651.707" width="55.36" height="17.6036"/>
			<path d="M7.09 595.28 L7.09 701.1" class="st3"/>
			<rect v:rectContext="textBkgnd" x="-15.6826" y="646.908" width="45.5386" height="9.59985" class="st5"/>
			<text x="-15.68" y="654.11" class="st6" v:langID="2057"><v:paragraph v:horizAlign="1"/><v:tabList/>0..* Specimen</text>		</g>
		<g id="shape1002-115" v:mID="1002" v:groupContext="shape" v:layerMember="0" transform="translate(620.787,-171.72)">
			<title>0..* Related</title>
			<desc>0..* Related</desc>
			<v:textBlock v:margins="rect(4,4,4,4)" v:tabSpace="42.5197"/>
			<v:textRect cx="-85.7629" cy="588.189" width="48.56" height="17.6036"/>
			<path d="M0 588.19 L-165.83 588.19 L-165.83 588.19 L-171.53 588.19" class="st9"/>
			<rect v:rectContext="textBkgnd" x="-105.134" y="583.389" width="38.7419" height="9.59985" class="st5"/>
			<text x="-105.13" y="590.59" class="st6" v:langID="2057"><v:paragraph v:horizAlign="1"/><v:tabList/>0..* Related</text>		</g>
		<g id="shape1003-123" v:mID="1003" v:groupContext="shape" v:layerMember="0" transform="translate(642.047,-192.98)">
			<title>0..1 Related</title>
			<desc>0..1 Related</desc>
			<v:textBlock v:margins="rect(4,4,4,4)" v:tabSpace="42.5197"/>
			<v:textRect cx="-23.5275" cy="557.232" width="48.63" height="17.6036"/>
			<path d="M0 595.28 L0 555.81 L-48.24 555.81" class="st3"/>
			<rect v:rectContext="textBkgnd" x="-42.9335" y="552.432" width="38.8122" height="9.59985" class="st5"/>
			<text x="-42.93" y="559.63" class="st6" v:langID="2057"><v:paragraph v:horizAlign="1"/><v:tabList/>0..1 Related</text>		</g>
		<g id="shape1004-130" v:mID="1004" v:groupContext="shape" v:layerMember="0" transform="translate(449.262,-166.051)">
			<title>0..* Related</title>
			<desc>0..* Related</desc>
			<v:textBlock v:margins="rect(4,4,4,4)" v:tabSpace="42.5197"/>
			<v:textRect cx="85.7629" cy="602.362" width="48.56" height="17.6036"/>
			<path d="M0 602.36 L164.49 602.36" class="st3"/>
			<rect v:rectContext="textBkgnd" x="66.3921" y="597.562" width="38.7419" height="9.59985" class="st5"/>
			<text x="66.39" y="604.76" class="st6" v:langID="2057"><v:paragraph v:horizAlign="1"/><v:tabList/>0..* Related</text>		</g>
		<g id="shape1005-137" v:mID="1005" v:groupContext="shape" v:layerMember="0" transform="translate(426.017,-192.98)">
			<title>0..1 related</title>
			<desc>0..1 related</desc>
			<v:textBlock v:margins="rect(4,4,4,4)" v:tabSpace="42.5197"/>
			<v:textRect cx="43.6584" cy="557.232" width="47.07" height="17.6036"/>
			<path d="M0 595.28 L0 555.81 L63.01 555.81" class="st3"/>
			<rect v:rectContext="textBkgnd" x="25.0297" y="552.432" width="37.2577" height="9.59985" class="st5"/>
			<text x="25.03" y="559.63" class="st6" v:langID="2057"><v:paragraph v:horizAlign="1"/><v:tabList/>0..1 related</text>		</g>
		<g id="shape1006-144" v:mID="1006" v:groupContext="shape" v:layerMember="0" transform="translate(381.081,-124.948)">
			<title>0..* Specimen</title>
			<desc>0..* Specimen</desc>
			<v:textBlock v:margins="rect(4,4,4,4)" v:tabSpace="42.5197"/>
			<v:textRect cx="-214.539" cy="626.979" width="55.36" height="17.6036"/>
			<path d="M0 595.28 L0 626.98 L-250.76 626.98" class="st3"/>
			<rect v:rectContext="textBkgnd" x="-237.308" y="622.179" width="45.5386" height="9.59985" class="st5"/>
			<text x="-237.31" y="629.38" class="st6" v:langID="2057"><v:paragraph v:horizAlign="1"/><v:tabList/>0..* Specimen</text>		</g>
		<g id="shape1007-151" v:mID="1007" v:groupContext="shape" v:layerMember="0" transform="translate(123.277,-240.378)">
			<title>0..* basedOn</title>
			<desc>0..* basedOn</desc>
			<v:textBlock v:margins="rect(4,4,4,4)" v:tabSpace="42.5197"/>
			<v:textRect cx="135.116" cy="595.276" width="52.55" height="17.6036"/>
			<path d="M0 595.28 L153.44 595.28 L153.44 485.53" class="st3"/>
			<rect v:rectContext="textBkgnd" x="113.749" y="590.476" width="42.7343" height="9.59985" class="st5"/>
			<text x="113.75" y="597.68" class="st6" v:langID="2057"><v:paragraph v:horizAlign="1"/><v:tabList/>0..* basedOn</text>		</g>
		<g id="shape1008-158" v:mID="1008" v:groupContext="shape" v:layerMember="0" transform="translate(281.54,-425.197)">
			<title>1..1 requester</title>
			<desc>1..1 requester</desc>
			<v:textBlock v:margins="rect(4,4,4,4)" v:tabSpace="42.5197"/>
			<v:textRect cx="69.2772" cy="519.307" width="55.51" height="17.6036"/>
			<path d="M0 595.28 L0 519.31 L207.48 519.31" class="st3"/>
			<rect v:rectContext="textBkgnd" x="46.4317" y="514.507" width="45.6913" height="9.59985" class="st5"/>
			<text x="46.43" y="521.71" class="st6" v:langID="2057"><v:paragraph v:horizAlign="1"/><v:tabList/>1..1 requester</text>		</g>
		<g id="shape1009-165" v:mID="1009" v:groupContext="shape" v:layerMember="0" transform="translate(665.575,-124.948)">
			<title>0..* Specimen</title>
			<desc>0..* Specimen</desc>
			<v:textBlock v:margins="rect(4,4,4,4)" v:tabSpace="42.5197"/>
			<v:textRect cx="-114.189" cy="663.531" width="55.36" height="17.6036"/>
			<path d="M0 595.28 L0 662.96 L-535.26 662.96" class="st3"/>
			<rect v:rectContext="textBkgnd" x="-136.959" y="658.731" width="45.5386" height="9.59985" class="st5"/>
			<text x="-136.96" y="665.93" class="st6" v:langID="2057"><v:paragraph v:horizAlign="1"/><v:tabList/>0..* Specimen</text>		</g>
		<g id="shape1010-172" v:mID="1010" v:groupContext="shape" v:layerMember="0" transform="translate(123.277,-234.142)">
			<title>0..1 Performer</title>
			<desc>0..1 Performer</desc>
			<v:textBlock v:margins="rect(4,4,4,4)" v:tabSpace="42.5197"/>
			<v:textRect cx="206.802" cy="595.276" width="57.29" height="17.6036"/>
			<path d="M0 595.28 L245.94 595.28 L245.94 438.24 L249.53 438.24" class="st3"/>
			<rect v:rectContext="textBkgnd" x="183.068" y="590.476" width="47.4689" height="9.59985" class="st5"/>
			<text x="183.07" y="597.68" class="st6" v:langID="2057"><v:paragraph v:horizAlign="1"/><v:tabList/>0..1 Performer</text>		</g>
		<g id="shape1011-179" v:mID="1011" v:groupContext="shape" v:layerMember="0" transform="translate(381.26,-192.98)">
			<title>0..1 Performer</title>
			<desc>0..1 Performer</desc>
			<v:textBlock v:margins="rect(4,4,4,4)" v:tabSpace="42.5197"/>
			<v:textRect cx="15.5906" cy="460.003" width="57.29" height="17.6036"/>
			<path d="M0 595.28 L0 584.65 L15.02 584.65 L15.02 438.13" class="st3"/>
			<rect v:rectContext="textBkgnd" x="-8.14378" y="455.204" width="47.4689" height="9.59985" class="st5"/>
			<text x="-8.14" y="462.4" class="st6" v:langID="2057"><v:paragraph v:horizAlign="1"/><v:tabList/>0..1 Performer</text>		</g>
		<g id="shape1012-186" v:mID="1012" v:groupContext="shape" v:layerMember="0" transform="translate(322.075,-418.394)">
			<title>0..1 Performer</title>
			<desc>0..1 Performer</desc>
			<v:textBlock v:margins="rect(4,4,4,4)" v:tabSpace="42.5197"/>
			<v:textRect cx="28.6001" cy="602.646" width="57.29" height="17.6036"/>
			<path d="M0 602.08 L10.63 602.08 L10.63 602.65 L50.73 602.65" class="st3"/>
			<rect v:rectContext="textBkgnd" x="4.86573" y="597.846" width="47.4689" height="9.59985" class="st5"/>
			<text x="4.87" y="605.05" class="st6" v:langID="2057"><v:paragraph v:horizAlign="1"/><v:tabList/>0..1 Performer</text>		</g>
		<g id="shape1013-193" v:mID="1013" v:groupContext="shape" v:layerMember="0" transform="translate(654.236,-192.98)">
			<title>0..1 Performer</title>
			<desc>0..1 Performer</desc>
			<v:textBlock v:margins="rect(4,4,4,4)" v:tabSpace="42.5197"/>
			<v:textRect cx="-70.2992" cy="397.074" width="57.29" height="17.6036"/>
			<path d="M0 595.28 L0 398.21 L-110.46 398.21 A2.3622 2.3622 -180 1 0 -115.18 398.21 L-176.65 398.21" class="st3"/>
			<rect v:rectContext="textBkgnd" x="-94.0335" y="392.274" width="47.4689" height="9.59985" class="st5"/>
			<text x="-94.03" y="399.47" class="st6" v:langID="2057"><v:paragraph v:horizAlign="1"/><v:tabList/>0..1 Performer</text>		</g>
		<g id="shape1014-200" v:mID="1014" v:groupContext="shape" v:layerMember="0" transform="translate(306.142,-425.197)">
			<title>1..1 Patient</title>
			<desc>1..1 Patient</desc>
			<v:textBlock v:margins="rect(4,4,4,4)" v:tabSpace="42.5197"/>
			<v:textRect cx="104.882" cy="562.677" width="47.12" height="17.6036"/>
			<path d="M0 595.28 L0 563.95 L232.91 563.95 A2.3622 2.3622 0 1 1 237.64 563.95 L357.64 563.95 A2.3622 2.3622 0 0 1 362.36
						 563.95 L397.56 563.95 L397.56 505.98 L401.15 505.98" class="st3"/>
			<rect v:rectContext="textBkgnd" x="86.2318" y="557.877" width="37.3005" height="9.59985" class="st8"/>
			<text x="86.23" y="565.08" class="st6" v:langID="2057"><v:paragraph v:horizAlign="1"/><v:tabList/>1..1 Patient</text>		</g>
		<g id="shape1015-207" v:mID="1015" v:groupContext="shape" v:layerMember="0" transform="translate(109.417,-277.273)">
			<title>1..1 Patient</title>
			<desc>1..1 Patient</desc>
			<v:textBlock v:margins="rect(4,4,4,4)" v:tabSpace="42.5197"/>
			<v:textRect cx="170.101" cy="310.095" width="47.12" height="17.6036"/>
			<path d="M0 595.28 L0 525.7 L46.49 525.7 L46.49 310.1 L612.85 310.1 L612.85 315.59" class="st3"/>
			<rect v:rectContext="textBkgnd" x="151.451" y="305.296" width="37.3005" height="9.59985" class="st5"/>
			<text x="151.45" y="312.5" class="st6" v:langID="2057"><v:paragraph v:horizAlign="1"/><v:tabList/>1..1 Patient</text>		</g>
	</g>
</svg>
