<?xml version="1.0" encoding="UTF-8" standalone="no"?>
<!-- Generated by Microsoft Visio, SVG Export bundle_diagram.svg Page-1 -->
<svg xmlns="http://www.w3.org/2000/svg" xmlns:xlink="http://www.w3.org/1999/xlink" xmlns:ev="http://www.w3.org/2001/xml-events"
		xmlns:v="http://schemas.microsoft.com/visio/2003/SVGExtensions/" width="11.6929in" height="8.26772in"
		viewBox="0 0 841.89 595.276" xml:space="preserve" color-interpolation-filters="sRGB" class="st8">
	<v:documentProperties v:langID="1033" v:metric="true" v:viewMarkup="false">
		<v:userDefs>
			<v:ud v:nameU="msvSubprocessMaster" v:prompt="" v:val="VT4(Rectangle)"/>
			<v:ud v:nameU="msvNoAutoConnect" v:val="VT0(1):26"/>
		</v:userDefs>
	</v:documentProperties>

	<style type="text/css">
	<![CDATA[
		.st1 {fill:#4672c4;stroke:#c7c8c8;stroke-width:0.25}
		.st2 {fill:#feffff;font-family:Calibri;font-size:0.833336em}
		.st3 {marker-end:url(#mrkr4-12);stroke:#4672c4;stroke-linecap:round;stroke-linejoin:round;stroke-width:1}
		.st4 {fill:#4672c4;fill-opacity:1;stroke:#4672c4;stroke-opacity:1;stroke-width:0.28409090909091}
		.st5 {fill:#ffffff;stroke:none;stroke-linecap:butt;stroke-width:7.2}
		.st6 {fill:#ff0000;font-family:Calibri;font-size:0.666664em}
		.st7 {font-size:1em}
		.st8 {fill:none;fill-rule:evenodd;font-size:12px;overflow:visible;stroke-linecap:square;stroke-miterlimit:3}
	]]>
	</style>

	<defs id="Markers">
		<g id="lend4">
			<path d="M 2 1 L 0 0 L 2 -1 L 2 1 " style="stroke:none"/>
		</g>
		<marker id="mrkr4-12" class="st4" v:arrowType="4" v:arrowSize="2" v:setback="7.04" refX="-7.04" orient="auto"
				markerUnits="strokeWidth" overflow="visible">
			<use xlink:href="#lend4" transform="scale(-3.52,-3.52) "/>
		</marker>
	</defs>
	<g v:mID="0" v:index="1" v:groupContext="foregroundPage">
		<v:userDefs>
			<v:ud v:nameU="msvThemeOrder" v:val="VT0(0):26"/>
		</v:userDefs>
		<title>Page-1</title>
		<v:pageProperties v:drawingScale="0.0393701" v:pageScale="0.0393701" v:drawingUnits="24" v:shadowOffsetX="8.50394"
				v:shadowOffsetY="-8.50394"/>
		<v:layer v:name="Connector" v:index="0"/>
		<g id="shape1-1" v:mID="1" v:groupContext="shape" transform="translate(32.5686,-481.89)">
			<title>Click for how to map to Bundle</title>
			<desc>Bundle</desc>
			<v:userDefs>
				<v:ud v:nameU="visVersion" v:val="VT0(15):26"/>
			</v:userDefs>
			<v:textBlock v:margins="rect(4,4,4,4)" v:tabSpace="42.5197"/>
			<v:textRect cx="45.3543" cy="561.26" width="90.71" height="68.0315"/>
			<rect x="0" y="527.244" width="90.7087" height="68.0315" class="st1"/>
			<text x="31.12" y="564.26" class="st2" v:langID="2057"><v:paragraph v:horizAlign="1"/><v:tabList/>Bundle</text>		</g>
		<g id="shape2-4" v:mID="2" v:groupContext="shape" transform="translate(32.5686,-357.165)">
			<title>Click for how to map to Bundle</title>
			<desc>MessageHeader</desc>
			<v:userDefs>
				<v:ud v:nameU="visVersion" v:val="VT0(15):26"/>
			</v:userDefs>
			<v:textBlock v:margins="rect(4,4,4,4)" v:tabSpace="42.5197"/>
			<v:textRect cx="45.3543" cy="561.26" width="90.71" height="68.0315"/>
			<rect x="0" y="527.244" width="90.7087" height="68.0315" class="st1"/>
			<text x="12.59" y="564.26" class="st2" v:langID="2057"><v:paragraph v:horizAlign="1"/><v:tabList/>MessageHeader</text>		</g>
		<g id="shape4-7" v:mID="4" v:groupContext="shape" v:layerMember="0" transform="translate(70.8363,-481.89)">
			<title>1..1 Resource</title>
			<desc>1..1 Resource</desc>
			<v:textBlock v:margins="rect(4,4,4,4)" v:tabSpace="42.5197"/>
			<v:textRect cx="7.08661" cy="623.622" width="53.8" height="17.6036"/>
			<path d="M7.09 595.28 L7.09 644.93" class="st3"/>
			<rect v:rectContext="textBkgnd" x="-14.9054" y="618.822" width="43.9843" height="9.59985" class="st5"/>
			<text x="-14.91" y="626.02" class="st6" v:langID="2057"><v:paragraph v:horizAlign="1"/><v:tabList/>1..1 Resource</text>		</g>
		<g id="shape5-15" v:mID="5" v:groupContext="shape" transform="translate(632.126,-481.89)">
			<title>Click for how to map to Bundle</title>
			<desc>Patient</desc>
			<v:userDefs>
				<v:ud v:nameU="visVersion" v:val="VT0(15):26"/>
			</v:userDefs>
			<v:textBlock v:margins="rect(4,4,4,4)" v:tabSpace="42.5197"/>
			<v:textRect cx="45.3543" cy="561.26" width="90.71" height="68.0315"/>
			<rect x="0" y="527.244" width="90.7087" height="68.0315" class="st1"/>
			<text x="30.76" y="564.26" class="st2" v:langID="2057"><v:paragraph v:horizAlign="1"/><v:tabList/>Patient</text>		</g>
			
		<g id="shape6-18" v:mID="6" v:groupContext="shape" transform="translate(431.165,-462.047)">
			<title>Click for how to map to Bundle</title>
			<desc>Organization</desc>
			<v:userDefs>
				<v:ud v:nameU="visVersion" v:val="VT0(15):26"/>
			</v:userDefs>
			<v:textBlock v:margins="rect(4,4,4,4)" v:tabSpace="42.5197"/>
			<v:textRect cx="45.3543" cy="561.26" width="90.71" height="68.0315"/>
			<rect x="0" y="527.244" width="90.7087" height="68.0315" class="st1"/>
			<text x="19.32" y="564.26" class="st2" v:langID="2057"><v:paragraph v:horizAlign="1"/><v:tabList/>Organization</text>		</g>
		<g id="shape7-21" v:mID="7" v:groupContext="shape" transform="translate(32.5686,-73.7008)">
			<title>Click for how to map to Bundle</title>
			<desc>Specimen</desc>
			<v:userDefs>
				<v:ud v:nameU="visVersion" v:val="VT0(15):26"/>
			</v:userDefs>
			<v:textBlock v:margins="rect(4,4,4,4)" v:tabSpace="42.5197"/>
			<v:textRect cx="45.3543" cy="561.26" width="90.71" height="68.0315"/>
			<rect x="0" y="527.244" width="90.7087" height="68.0315" class="st1"/>
			<text x="25.57" y="564.26" class="st2" v:langID="2057"><v:paragraph v:horizAlign="1"/><v:tabList/>Specimen</text>		</g>
		</a>
		<a xlink:href="explore_specimen.html">
		<g id="shape8-24" v:mID="8" v:groupContext="shape" transform="translate(32.5686,-209.242)">
			<title>Click for how to map to Bundle</title>
			<desc>DiagnosticReport</desc>
			<v:userDefs>
				<v:ud v:nameU="visVersion" v:val="VT0(15):26"/>
			</v:userDefs>
			<v:textBlock v:margins="rect(4,4,4,4)" v:tabSpace="42.5197"/>
			<v:textRect cx="45.3543" cy="561.26" width="90.71" height="68.0315"/>
			<rect x="0" y="527.244" width="90.7087" height="68.0315" class="st1"/>
			<text x="10.34" y="564.26" class="st2" v:langID="2057"><v:paragraph v:horizAlign="1"/><v:tabList/>DiagnosticReport</text>		</g>
		<g id="shape9-27" v:mID="9" v:groupContext="shape" transform="translate(340.157,-150.236)">
			<title>Click for how to map to Bundle</title>
			<desc>Observation (Test Group)</desc>
			<v:userDefs>
				<v:ud v:nameU="visVersion" v:val="VT0(15):26"/>
			</v:userDefs>
			<v:textBlock v:margins="rect(4,4,4,4)" v:tabSpace="42.5197"/>
			<v:textRect cx="45.3543" cy="561.26" width="90.71" height="68.0315"/>
			<rect x="0" y="527.244" width="90.7087" height="68.0315" class="st1"/>
			<text x="9.29" y="558.26" class="st2" v:langID="2057"><v:paragraph v:horizAlign="1"/><v:tabList/>Observation (Test <tspan
						x="31.05" dy="1.2em" class="st7">Group)</tspan></text>		</g>
		<g id="shape10-31" v:mID="10" v:groupContext="shape" transform="translate(521.575,-150.236)">
			<title>Click for how to map to Bundle</title>
			<desc>Observation (Test Result)</desc>
			<v:userDefs>
				<v:ud v:nameU="visVersion" v:val="VT0(15):26"/>
			</v:userDefs>
			<v:textBlock v:margins="rect(4,4,4,4)" v:tabSpace="42.5197"/>
			<v:textRect cx="45.3543" cy="561.26" width="90.71" height="68.0315"/>
			<rect x="0" y="527.244" width="90.7087" height="68.0315" class="st1"/>
			<text x="9.29" y="558.26" class="st2" v:langID="2057"><v:paragraph v:horizAlign="1"/><v:tabList/>Observation (Test <tspan
						x="31.23" dy="1.2em" class="st7">Result)</tspan></text>		</g>
		<g id="shape12-35" v:mID="12" v:groupContext="shape" transform="translate(201.409,-357.165)">
			<title>Click for how to map to Bundle</title>
			<desc>ProcedureRequest</desc>
			<v:userDefs>
				<v:ud v:nameU="visVersion" v:val="VT0(15):26"/>
			</v:userDefs>
			<v:textBlock v:margins="rect(4,4,4,4)" v:tabSpace="42.5197"/>
			<v:textRect cx="45.3543" cy="561.26" width="90.71" height="68.0315"/>
			<rect x="0" y="527.244" width="90.7087" height="68.0315" class="st1"/>
			<text x="7.73" y="564.26" class="st2" v:langID="2057"><v:paragraph v:horizAlign="1"/><v:tabList/>ProcedureRequest</text>		</g>
		<g id="shape13-38" v:mID="13" v:groupContext="shape" transform="translate(362.835,-357.165)">
			<title>Click for how to map to Bundle</title>
			<desc>Practitioner</desc>
			<v:userDefs>
				<v:ud v:nameU="visVersion" v:val="VT0(15):26"/>
			</v:userDefs>
			<v:textBlock v:margins="rect(4,4,4,4)" v:tabSpace="42.5197"/>
			<v:textRect cx="45.3543" cy="561.26" width="90.71" height="68.0315"/>
			<rect x="0" y="527.244" width="90.7087" height="68.0315" class="st1"/>
			<text x="21.38" y="564.26" class="st2" v:langID="2057"><v:paragraph v:horizAlign="1"/><v:tabList/>Practitioner</text>		</g>
		<g id="shape15-41" v:mID="15" v:groupContext="shape" v:layerMember="0" transform="translate(123.277,-391.181)">
			<title>1..1 Responsible</title>
			<desc>1..1 Responsible</desc>
			<v:textBlock v:margins="rect(4,4,4,4)" v:tabSpace="42.5197"/>
			<v:textRect cx="205.147" cy="474.803" width="62.84" height="17.6036"/>
			<path d="M0 595.28 L4.72 595.28 A2.3622 2.3622 0 0 1 9.45 595.28 L52.02 595.28 L52.02 474.8 L300.85 474.8" class="st3"/>
			<rect v:rectContext="textBkgnd" x="179.543" y="470.003" width="53.0192" height="9.59985" class="st5"/>
			<text x="179.54" y="477.2" class="st6" v:langID="2057"><v:paragraph v:horizAlign="2"/><v:tabList/>1..1 Responsible</text>		</g>
		<g id="shape16-48" v:mID="16" v:groupContext="shape" v:layerMember="0" transform="translate(70.8363,-357.165)">
			<title>1..1 Focus</title>
			<desc>1..1 Focus</desc>
			<v:textBlock v:margins="rect(4,4,4,4)" v:tabSpace="42.5197"/>
			<v:textRect cx="7.08661" cy="635.222" width="42.38" height="17.6036"/>
			<path d="M7.09 595.28 L7.09 668.13" class="st3"/>
			<rect v:rectContext="textBkgnd" x="-9.19653" y="630.422" width="32.5665" height="9.59985" class="st5"/>
			<text x="-9.2" y="637.62" class="st6" v:langID="2057"><v:paragraph v:horizAlign="1"/><v:tabList/>1..1 Focus</text>		</g>
		<g id="shape17-55" v:mID="17" v:groupContext="shape" v:layerMember="0" transform="translate(123.277,-250.344)">
			<title>0..1 Organization</title>
			<desc>0..1 Organization</desc>
			<v:textBlock v:margins="rect(4,4,4,4)" v:tabSpace="42.5197"/>
			<v:textRect cx="140.228" cy="347.856" width="65.43" height="17.6036"/>
			<path d="M0 595.28 L63.96 595.28 L63.96 349.56 L300.85 349.56" class="st3"/>
			<rect v:rectContext="textBkgnd" x="112.424" y="343.056" width="55.6092" height="9.59985" class="st5"/>
			<text x="112.42" y="350.26" class="st6" v:langID="2057"><v:paragraph v:horizAlign="1"/><v:tabList/>0..1 Organization</text>		</g>
		<g id="shape18-62" v:mID="18" v:groupContext="shape" v:layerMember="0" transform="translate(385.512,-218.268)">
			<title>0..1 Performer</title>
			<desc>0..1 Performer</desc>
			<v:textBlock v:margins="rect(4,4,4,4)" v:tabSpace="42.5197"/>
			<v:textRect cx="50.6527" cy="522.992" width="57.29" height="17.6036"/>
			<path d="M0 595.28 L0 524.11 L91.01 524.11 L91.01 358.54" class="st3"/>
			<rect v:rectContext="textBkgnd" x="26.9184" y="518.192" width="47.4689" height="9.59985" class="st5"/>
			<text x="26.92" y="525.39" class="st6" v:langID="2057"><v:paragraph v:horizAlign="1"/><v:tabList/>0..1 Performer</text>		</g>
		<g id="shape19-69" v:mID="19" v:groupContext="shape" v:layerMember="0" transform="translate(566.929,-218.268)">
			<title>0..1 Performer</title>
			<desc>0..1 Performer</desc>
			<v:textBlock v:margins="rect(4,4,4,4)" v:tabSpace="42.5197"/>
			<v:textRect cx="-8.50577" cy="337.323" width="57.29" height="17.6036"/>
			<path d="M0 595.28 L0 544.79 L24.62 544.79 L24.62 337.32 L-38.02 337.32" class="st3"/>
			<rect v:rectContext="textBkgnd" x="-32.2401" y="332.523" width="47.4689" height="9.59985" class="st5"/>
			<text x="-32.24" y="339.72" class="st6" v:langID="2057"><v:paragraph v:horizAlign="1"/><v:tabList/>0..1 Performer</text>		</g>
		<g id="shape22-76" v:mID="22" v:groupContext="shape" v:layerMember="0" transform="translate(123.277,-226.249)">
			<title>0..* Result</title>
			<desc>0..* Result</desc>
			<v:textBlock v:margins="rect(4,4,4,4)" v:tabSpace="42.5197"/>
			<v:textRect cx="89.4256" cy="633.305" width="43.88" height="17.6036"/>
			<path d="M0 595.28 L10.63 595.28 L10.63 633.3 L209.84 633.3" class="st3"/>
			<rect v:rectContext="textBkgnd" x="72.3965" y="628.505" width="34.0584" height="9.59985" class="st5"/>
			<text x="72.4" y="635.7" class="st6" v:langID="2057"><v:paragraph v:horizAlign="1"/><v:tabList/>0..* Result</text>		</g>
		<g id="shape24-83" v:mID="24" v:groupContext="shape" v:layerMember="0" transform="translate(386.079,-150.236)">
			<title>1..1 Patient</title>
			<desc>1..1 Patient</desc>
			<v:textBlock v:margins="rect(4,4,4,4)" v:tabSpace="42.5197"/>
			<v:textRect cx="284.954" cy="617.953" width="47.12" height="17.6036"/>
			<path d="M0 595.28 L0 617.95 L177.92 617.95 A2.3622 2.3622 0 0 1 182.65 617.95 L291.4 617.95 L291.4 270.66" class="st3"/>
			<rect v:rectContext="textBkgnd" x="266.303" y="613.153" width="37.3005" height="9.59985" class="st5"/>
			<text x="266.3" y="620.35" class="st6" v:langID="2057"><v:paragraph v:horizAlign="1"/><v:tabList/>1..1 Patient</text>		</g>
		<g id="shape25-90" v:mID="25" v:groupContext="shape" v:layerMember="0" transform="translate(612.283,-184.252)">
			<title>1..1 Patient</title>
			<desc>1..1 Patient</desc>
			<v:textBlock v:margins="rect(4,4,4,4)" v:tabSpace="42.5197"/>
			<v:textRect cx="43.0866" cy="468" width="47.12" height="17.6036"/>
			<path d="M0 595.28 L43.09 595.28 L43.09 304.68" class="st3"/>
			<rect v:rectContext="textBkgnd" x="24.4365" y="463.2" width="37.3005" height="9.59985" class="st5"/>
			<text x="24.44" y="470.4" class="st6" v:langID="2057"><v:paragraph v:horizAlign="1"/><v:tabList/>1..1 Patient</text>		</g>
		<g id="shape1000-97" v:mID="1000" v:groupContext="shape" v:layerMember="0" transform="translate(123.277,-85.0394)">
			<title>1..1 Patient</title>
			<desc>1..1 Patient</desc>
			<v:textBlock v:margins="rect(4,4,4,4)" v:tabSpace="42.5197"/>
			<v:textRect cx="228.883" cy="594.709" width="47.12" height="17.6036"/>
			<path d="M0 595.28 L575.69 595.28 L575.69 205.47" class="st3"/>
			<rect v:rectContext="textBkgnd" x="210.233" y="589.909" width="37.3005" height="9.59985" class="st5"/>
			<text x="210.23" y="597.11" class="st6" v:langID="2057"><v:paragraph v:horizAlign="1"/><v:tabList/>1..1 Patient</text>		</g>
		<g id="shape1001-104" v:mID="1001" v:groupContext="shape" v:layerMember="0" transform="translate(70.8363,-209.242)">
			<title>0..* Specimen</title>
			<desc>0..* Specimen</desc>
			<v:textBlock v:margins="rect(4,4,4,4)" v:tabSpace="42.5197"/>
			<v:textRect cx="7.08661" cy="629.03" width="55.36" height="17.6036"/>
			<path d="M7.09 595.28 L7.09 655.74" class="st3"/>
			<rect v:rectContext="textBkgnd" x="-15.6826" y="624.231" width="45.5386" height="9.59985" class="st5"/>
			<text x="-15.68" y="631.43" class="st6" v:langID="2057"><v:paragraph v:horizAlign="1"/><v:tabList/>0..* Specimen</text>		</g>
		<g id="shape1002-111" v:mID="1002" v:groupContext="shape" v:layerMember="0" transform="translate(521.575,-197.008)">
			<title>0..* Related</title>
			<desc>0..* Related</desc>
			<v:textBlock v:margins="rect(4,4,4,4)" v:tabSpace="42.5197"/>
			<v:textRect cx="-45.3543" cy="588.189" width="48.56" height="17.6036"/>
			<path d="M0 588.19 L-66.61 588.19 L-66.61 588.19 L-83.67 588.19" class="st3"/>
			<rect v:rectContext="textBkgnd" x="-64.7252" y="583.389" width="38.7419" height="9.59985" class="st5"/>
			<text x="-64.73" y="590.59" class="st6" v:langID="2057"><v:paragraph v:horizAlign="1"/><v:tabList/>0..* Related</text>		</g>
		<g id="shape1004-118" v:mID="1004" v:groupContext="shape" v:layerMember="0" transform="translate(430.866,-191.339)">
			<title>0..* Related</title>
			<desc>0..* Related</desc>
			<v:textBlock v:margins="rect(4,4,4,4)" v:tabSpace="42.5197"/>
			<v:textRect cx="45.3543" cy="602.362" width="48.56" height="17.6036"/>
			<path d="M0 602.36 L83.67 602.36" class="st3"/>
			<rect v:rectContext="textBkgnd" x="25.9835" y="597.562" width="38.7419" height="9.59985" class="st5"/>
			<text x="25.98" y="604.76" class="st6" v:langID="2057"><v:paragraph v:horizAlign="1"/><v:tabList/>0..* Related</text>		</g>
		<g id="shape1006-125" v:mID="1006" v:groupContext="shape" v:layerMember="0" transform="translate(362.685,-151.504)">
			<title>0..* Specimen</title>
			<desc>0..* Specimen</desc>
			<v:textBlock v:margins="rect(4,4,4,4)" v:tabSpace="42.5197"/>
			<v:textRect cx="-201.891" cy="608.181" width="55.36" height="17.6036"/>
			<path d="M0 596.54 L0 608.18 L-232.37 608.18" class="st3"/>
			<rect v:rectContext="textBkgnd" x="-224.66" y="603.381" width="45.5386" height="9.59985" class="st5"/>
			<text x="-224.66" y="610.58" class="st6" v:langID="2057"><v:paragraph v:horizAlign="1"/><v:tabList/>0..* Specimen</text>		</g>
		<g id="shape1007-132" v:mID="1007" v:groupContext="shape" v:layerMember="0" transform="translate(123.277,-240.378)">
			<title>0..* basedOn</title>
			<desc>0..* basedOn</desc>
			<v:textBlock v:margins="rect(4,4,4,4)" v:tabSpace="42.5197"/>
			<v:textRect cx="120.137" cy="595.276" width="52.55" height="17.6036"/>
			<path d="M0 595.28 L123.49 595.28 L123.49 485.53" class="st3"/>
			<rect v:rectContext="textBkgnd" x="98.7697" y="590.476" width="42.7343" height="9.59985" class="st5"/>
			<text x="98.77" y="597.68" class="st6" v:langID="2057"><v:paragraph v:horizAlign="1"/><v:tabList/>0..* basedOn</text>		</g>
		<g id="shape1008-139" v:mID="1008" v:groupContext="shape" v:layerMember="0" transform="translate(251.582,-425.197)">
			<title>1..1 requester</title>
			<desc>1..1 requester</desc>
			<v:textBlock v:margins="rect(4,4,4,4)" v:tabSpace="42.5197"/>
			<v:textRect cx="61.7281" cy="539.15" width="55.51" height="17.6036"/>
			<path d="M0 595.28 L0 539.15 L172.54 539.15" class="st3"/>
			<rect v:rectContext="textBkgnd" x="38.8826" y="534.35" width="45.6913" height="9.59985" class="st5"/>
			<text x="38.88" y="541.55" class="st6" v:langID="2057"><v:paragraph v:horizAlign="1"/><v:tabList/>1..1 requester</text>		</g>
		<g id="shape1009-146" v:mID="1009" v:groupContext="shape" v:layerMember="0" transform="translate(566.362,-150.236)">
			<title>0..* Specimen</title>
			<desc>0..* Specimen</desc>
			<v:textBlock v:margins="rect(4,4,4,4)" v:tabSpace="42.5197"/>
			<v:textRect cx="-98.6907" cy="643.465" width="55.36" height="17.6036"/>
			<path d="M0 595.28 L0 642.9 L-436.04 642.9" class="st3"/>
			<rect v:rectContext="textBkgnd" x="-121.46" y="638.665" width="45.5386" height="9.59985" class="st5"/>
			<text x="-121.46" y="645.86" class="st6" v:langID="2057"><v:paragraph v:horizAlign="1"/><v:tabList/>0..* Specimen</text>		</g>
		<g id="shape1010-153" v:mID="1010" v:groupContext="shape" v:layerMember="0" transform="translate(123.277,-234.142)">
			<title>0..1 Performer</title>
			<desc>0..1 Performer</desc>
			<v:textBlock v:margins="rect(4,4,4,4)" v:tabSpace="42.5197"/>
			<v:textRect cx="198.298" cy="595.276" width="57.29" height="17.6036"/>
			<path d="M0 595.28 L202.71 595.28 L202.71 438.24 L232.52 438.24" class="st3"/>
			<rect v:rectContext="textBkgnd" x="174.564" y="590.476" width="47.4689" height="9.59985" class="st5"/>
			<text x="174.56" y="597.68" class="st6" v:langID="2057"><v:paragraph v:horizAlign="1"/><v:tabList/>0..1 Performer</text>		</g>
		<g id="shape1011-160" v:mID="1011" v:groupContext="shape" v:layerMember="0" transform="translate(362.864,-218.268)">
			<title>0..1 Performer</title>
			<desc>0..1 Performer</desc>
			<v:textBlock v:margins="rect(4,4,4,4)" v:tabSpace="42.5197"/>
			<v:textRect cx="16.9781" cy="481.435" width="57.29" height="17.6036"/>
			<path d="M0 595.28 L0 494.77 L16.41 494.77 L16.41 463.42" class="st3"/>
			<rect v:rectContext="textBkgnd" x="-6.75626" y="476.636" width="47.4689" height="9.59985" class="st5"/>
			<text x="-6.76" y="483.84" class="st6" v:langID="2057"><v:paragraph v:horizAlign="1"/><v:tabList/>0..1 Performer</text>		</g>
		<g id="shape1012-167" v:mID="1012" v:groupContext="shape" v:layerMember="0" transform="translate(292.118,-418.394)">
			<title>0..1 Performer</title>
			<desc>0..1 Performer</desc>
			<v:textBlock v:margins="rect(4,4,4,4)" v:tabSpace="42.5197"/>
			<v:textRect cx="35.075" cy="602.646" width="57.29" height="17.6036"/>
			<path d="M0 602.08 L10.63 602.08 L10.63 602.65 L63.68 602.65" class="st3"/>
			<rect v:rectContext="textBkgnd" x="11.3407" y="597.846" width="47.4689" height="9.59985" class="st5"/>
			<text x="11.34" y="605.05" class="st6" v:langID="2057"><v:paragraph v:horizAlign="1"/><v:tabList/>0..1 Performer</text>		</g>
		<g id="shape1013-174" v:mID="1013" v:groupContext="shape" v:layerMember="0" transform="translate(555.024,-218.268)">
			<title>0..1 Performer</title>
			<desc>0..1 Performer</desc>
			<v:textBlock v:margins="rect(4,4,4,4)" v:tabSpace="42.5197"/>
			<v:textRect cx="-20.1052" cy="422.362" width="57.29" height="17.6036"/>
			<path d="M0 595.28 L0 423.5 L-76.14 423.5 A2.3622 2.3622 -180 1 0 -80.87 423.5 L-94.44 423.5" class="st3"/>
			<rect v:rectContext="textBkgnd" x="-43.8395" y="417.562" width="47.4689" height="9.59985" class="st5"/>
			<text x="-43.84" y="424.76" class="st6" v:langID="2057"><v:paragraph v:horizAlign="1"/><v:tabList/>0..1 Performer</text>		</g>
		<g id="shape1014-181" v:mID="1014" v:groupContext="shape" v:layerMember="0" transform="translate(276.184,-425.197)">
			<title>1..1 Patient</title>
			<desc>1..1 Patient</desc>
			<v:textBlock v:margins="rect(4,4,4,4)" v:tabSpace="42.5197"/>
			<v:textRect cx="103.258" cy="575.358" width="47.12" height="17.6036"/>
			<path d="M0 595.28 L0 576.63 L197.97 576.63 A2.3622 2.3622 0 0 1 202.7 576.63 L313 576.63 A2.3622 2.3622 0 0 1 317.72
						 576.63 L345.31 576.63 L345.31 505.98 L348.9 505.98" class="st3"/>
			<rect v:rectContext="textBkgnd" x="84.6076" y="570.559" width="37.3005" height="9.59985" class="st5"/>
			<text x="84.61" y="577.76" class="st6" v:langID="2057"><v:paragraph v:horizAlign="1"/><v:tabList/>1..1 Patient</text>		</g>
		<g id="shape1015-188" v:mID="1015" v:groupContext="shape" v:layerMember="0" transform="translate(109.417,-277.273)">
			<title>1..1 Patient</title>
			<desc>1..1 Patient</desc>
			<v:textBlock v:margins="rect(4,4,4,4)" v:tabSpace="42.5197"/>
			<v:textRect cx="129.991" cy="332.549" width="47.12" height="17.6036"/>
			<path d="M0 595.28 L0 522.47 L20.95 522.47 L20.95 332.55 L515.67 332.55" class="st3"/>
			<rect v:rectContext="textBkgnd" x="111.341" y="327.749" width="37.3005" height="9.59985" class="st5"/>
			<text x="111.34" y="334.95" class="st6" v:langID="2057"><v:paragraph v:horizAlign="1"/><v:tabList/>1..1 Patient</text>		</g>
	</g>
</svg>
